<svg xmlns="http://www.w3.org/2000/svg" width="1300" height="1000" viewBox="0 0 1300 1000">
  <defs>
    <marker id="arrow" viewBox="0 0 10 10" refX="8" refY="5" markerWidth="6" markerHeight="6" orient="auto-start-reverse">
      <path d="M 0 0 L 10 5 L 0 10 z" fill="#374151" />
    </marker>
  </defs>
  <rect width="100%" height="100%" fill="#FFFFFF"/>
  <rect x="0" y="0" width="1300" height="60" fill="#800000"/>
  <text x="650.0" y="38" font-family="Arial" font-size="20" font-weight="bold" fill="#FFFFFF" text-anchor="middle">Flowchart 2 — Data → ML → Risk Pipeline</text>
<rect x="50" y="90" width="260" height="52" rx="6" fill="#E6F2FF" stroke="#0066CC" stroke-width="2" />
<text x="180.0" y="108.0" font-family="Arial" font-size="14" font-weight="bold" fill="#1A1A1A" text-anchor="middle">RAW DELHI DATA</text>
<text x="180.0" y="128.0" font-family="Arial" font-size="12" fill="#4B5563" text-anchor="middle">NCRB + OSM + Spatial Features</text>
<rect x="360" y="90" width="260" height="52" rx="6" fill="#FFF0F0" stroke="#800000" stroke-width="2" />
<text x="490.0" y="108.0" font-family="Arial" font-size="14" font-weight="bold" fill="#1A1A1A" text-anchor="middle">DATA CLEANING</text>
<text x="490.0" y="128.0" font-family="Arial" font-size="12" fill="#4B5563" text-anchor="middle">Null Handling & Format Standardizing</text>
<rect x="670" y="90" width="260" height="52" rx="6" fill="#FFF0F0" stroke="#800000" stroke-width="2" />
<text x="800.0" y="108.0" font-family="Arial" font-size="14" font-weight="bold" fill="#1A1A1A" text-anchor="middle">DATA VALIDATION</text>
<text x="800.0" y="128.0" font-family="Arial" font-size="12" fill="#4B5563" text-anchor="middle">Coordinate & Range Checks</text>
<rect x="980" y="90" width="270" height="52" rx="6" fill="#F2E6FF" stroke="#6600CC" stroke-width="2" />
<text x="1115.0" y="108.0" font-family="Arial" font-size="14" font-weight="bold" fill="#1A1A1A" text-anchor="middle">FEATURE ENGINEERING</text>
<text x="1115.0" y="128.0" font-family="Arial" font-size="12" fill="#4B5563" text-anchor="middle">Extract Spatial & Temporal Metrics</text>
<line x1="310" y1="116" x2="360" y2="116" stroke="#374151" stroke-width="2"  marker-end="url(#arrow)"/>
<line x1="620" y1="116" x2="670" y2="116" stroke="#374151" stroke-width="2"  marker-end="url(#arrow)"/>
<line x1="930" y1="116" x2="980" y2="116" stroke="#374151" stroke-width="2"  marker-end="url(#arrow)"/>
<rect x="980" y="185" width="270" height="52" rx="6" fill="#F2E6FF" stroke="#6600CC" stroke-width="2" />
<text x="1115.0" y="203.0" font-family="Arial" font-size="14" font-weight="bold" fill="#1A1A1A" text-anchor="middle">SPATIAL + TEMPORAL FEATURES</text>
<text x="1115.0" y="223.0" font-family="Arial" font-size="12" fill="#4B5563" text-anchor="middle">Grid Density, Lighting, Time Slot</text>
<rect x="670" y="185" width="260" height="52" rx="6" fill="#E6F2FF" stroke="#0066CC" stroke-width="2" />
<text x="800.0" y="203.0" font-family="Arial" font-size="14" font-weight="bold" fill="#1A1A1A" text-anchor="middle">TRAINING DATASET</text>
<text x="800.0" y="223.0" font-family="Arial" font-size="12" fill="#4B5563" text-anchor="middle">Structured Feature Matrix</text>
<rect x="360" y="185" width="260" height="52" rx="6" fill="#F2E6FF" stroke="#6600CC" stroke-width="2" />
<text x="490.0" y="203.0" font-family="Arial" font-size="14" font-weight="bold" fill="#1A1A1A" text-anchor="middle">TRAIN / VALID / TEST SPLIT</text>
<text x="490.0" y="223.0" font-family="Arial" font-size="12" fill="#4B5563" text-anchor="middle">Temporal & Spatial Stratified Split</text>
<rect x="50" y="185" width="260" height="52" rx="6" fill="#F2E6FF" stroke="#6600CC" stroke-width="2" />
<text x="180.0" y="203.0" font-family="Arial" font-size="14" font-weight="bold" fill="#1A1A1A" text-anchor="middle">BASELINE MODELS</text>
<text x="180.0" y="223.0" font-family="Arial" font-size="12" fill="#4B5563" text-anchor="middle">Logistic Reg / Random Forest Benchmark</text>
<line x1="1115" y1="142" x2="1115" y2="185" stroke="#374151" stroke-width="2"  marker-end="url(#arrow)"/>
<line x1="980" y1="211" x2="930" y2="211" stroke="#374151" stroke-width="2"  marker-end="url(#arrow)"/>
<line x1="670" y1="211" x2="620" y2="211" stroke="#374151" stroke-width="2"  marker-end="url(#arrow)"/>
<line x1="360" y1="211" x2="310" y2="211" stroke="#374151" stroke-width="2"  marker-end="url(#arrow)"/>
<rect x="50" y="280" width="260" height="52" rx="6" fill="#F2E6FF" stroke="#6600CC" stroke-width="2" />
<text x="180.0" y="298.0" font-family="Arial" font-size="14" font-weight="bold" fill="#1A1A1A" text-anchor="middle">XGBOOST TRAINING</text>
<text x="180.0" y="318.0" font-family="Arial" font-size="12" fill="#4B5563" text-anchor="middle">Gradient Boosted Decision Trees</text>
<rect x="360" y="280" width="260" height="52" rx="6" fill="#F2E6FF" stroke="#6600CC" stroke-width="2" />
<text x="490.0" y="298.0" font-family="Arial" font-size="14" font-weight="bold" fill="#1A1A1A" text-anchor="middle">MODEL VALIDATION</text>
<text x="490.0" y="318.0" font-family="Arial" font-size="12" fill="#4B5563" text-anchor="middle">Hyperparameter Tuning & ROC-AUC</text>
<rect x="670" y="280" width="260" height="52" rx="6" fill="#F2E6FF" stroke="#6600CC" stroke-width="2" />
<text x="800.0" y="298.0" font-family="Arial" font-size="14" font-weight="bold" fill="#1A1A1A" text-anchor="middle">FINAL MODEL</text>
<text x="800.0" y="318.0" font-family="Arial" font-size="12" fill="#4B5563" text-anchor="middle">Trained Risk Predictor</text>
<rect x="980" y="280" width="270" height="52" rx="6" fill="#F2E6FF" stroke="#6600CC" stroke-width="2" />
<text x="1115.0" y="298.0" font-family="Arial" font-size="14" font-weight="bold" fill="#1A1A1A" text-anchor="middle">SHAP EXPLANATION</text>
<text x="1115.0" y="318.0" font-family="Arial" font-size="12" fill="#4B5563" text-anchor="middle">TreeSHAP Feature Attribution</text>
<line x1="180" y1="237" x2="180" y2="280" stroke="#374151" stroke-width="2"  marker-end="url(#arrow)"/>
<line x1="310" y1="306" x2="360" y2="306" stroke="#374151" stroke-width="2"  marker-end="url(#arrow)"/>
<line x1="620" y1="306" x2="670" y2="306" stroke="#374151" stroke-width="2"  marker-end="url(#arrow)"/>
<line x1="930" y1="306" x2="980" y2="306" stroke="#374151" stroke-width="2"  marker-end="url(#arrow)"/>
<rect x="980" y="375" width="270" height="52" rx="6" fill="#F2E6FF" stroke="#6600CC" stroke-width="2" />
<text x="1115.0" y="393.0" font-family="Arial" font-size="14" font-weight="bold" fill="#1A1A1A" text-anchor="middle">CONFIDENCE / DATA QUALITY</text>
<text x="1115.0" y="413.0" font-family="Arial" font-size="12" fill="#4B5563" text-anchor="middle">Uncertainty & Sample Density Metric</text>
<rect x="530" y="375" width="360" height="52" rx="6" fill="#FFF0F0" stroke="#800000" stroke-width="2" />
<text x="710.0" y="393.0" font-family="Arial" font-size="14" font-weight="bold" fill="#1A1A1A" text-anchor="middle">CONTEXTUAL SAFETY RISK ENGINE</text>
<text x="710.0" y="413.0" font-family="Arial" font-size="12" fill="#4B5563" text-anchor="middle">Segment-Level Risk Score Generation</text>
<rect x="50" y="375" width="360" height="52" rx="6" fill="#E6FFE6" stroke="#009933" stroke-width="2" />
<text x="230.0" y="393.0" font-family="Arial" font-size="14" font-weight="bold" fill="#1A1A1A" text-anchor="middle">SAFETY-AWARE ROUTE RANKING</text>
<text x="230.0" y="413.0" font-family="Arial" font-size="12" fill="#4B5563" text-anchor="middle">Safest / Balanced / Fastest Evaluation</text>
<line x1="1115" y1="332" x2="1115" y2="375" stroke="#374151" stroke-width="2"  marker-end="url(#arrow)"/>
<line x1="980" y1="401" x2="890" y2="401" stroke="#374151" stroke-width="2"  marker-end="url(#arrow)"/>
<line x1="530" y1="401" x2="410" y2="401" stroke="#374151" stroke-width="2"  marker-end="url(#arrow)"/>
<rect x="50" y="470" width="1200" height="230" rx="8" fill="#FAFAFA" stroke="#D1D5DB" stroke-width="1.5"/>
<text x="650" y="495" font-family="Arial" font-size="15" font-weight="bold" fill="#1F2937" text-anchor="middle">DATA SOURCE CLASSIFICATION & INTEGRITY ARCHITECTURE</text>
<rect x="80" y="515" width="540" height="70" rx="6" fill="#E6F2FF" stroke="#0066CC" stroke-width="2" />
<text x="350.0" y="542.0" font-family="Arial" font-size="14" font-weight="bold" fill="#1A1A1A" text-anchor="middle">REAL DATA SOURCES</text>
<text x="350.0" y="562.0" font-family="Arial" font-size="12" fill="#4B5563" text-anchor="middle">NCRB Statistics, OpenStreetMap GIS, Official Open Government Data</text>
<rect x="680" y="515" width="540" height="70" rx="6" fill="#FFF3E0" stroke="#E65100" stroke-width="2" />
<text x="950.0" y="542.0" font-family="Arial" font-size="14" font-weight="bold" fill="#1A1A1A" text-anchor="middle">SYNTHETIC / PROXY DATA (Where Required)</text>
<text x="950.0" y="562.0" font-family="Arial" font-size="12" fill="#4B5563" text-anchor="middle">Simulated Context Features, Proxy Density Estimates</text>
<rect x="80" y="605" width="1140" height="75" rx="6" fill="#FFFBEB" stroke="#D97706" stroke-width="2"/>
<text x="650" y="635" font-family="Arial" font-size="13" font-weight="bold" fill="#92400E" text-anchor="middle">⚠️ DATA INTEGRITY DIRECTIVE</text>
<text x="650" y="660" font-family="Arial" font-size="13" fill="#B45309" text-anchor="middle">"Replace or minimize synthetic / proxy inputs wherever reliable real data is available. Do not imply synthetic data represents real crime records."</text>

  <!-- Legend -->
  <g transform="translate(40, 940)">
    <rect x="0" y="0" width="1120" height="40" rx="6" fill="#FAFAFA" stroke="#E5E7EB" stroke-width="1"/>
    <text x="15" y="24" font-family="Arial" font-size="12" font-weight="bold" fill="#374151">LEGEND:</text>
    
    <rect x="85" y="12" width="16" height="16" rx="3" fill="#800000"/>
    <text x="106" y="24" font-family="Arial" font-size="11" fill="#374151">Main Flow / User</text>

    <rect x="220" y="12" width="16" height="16" rx="3" fill="#FFF0F0" stroke="#800000" stroke-width="1.5"/>
    <text x="241" y="24" font-family="Arial" font-size="11" fill="#374151">System Component</text>

    <rect x="380" y="12" width="16" height="16" rx="3" fill="#E6F2FF" stroke="#0066CC" stroke-width="1.5"/>
    <text x="401" y="24" font-family="Arial" font-size="11" fill="#374151">Data / Inputs</text>

    <rect x="500" y="12" width="16" height="16" rx="3" fill="#F2E6FF" stroke="#6600CC" stroke-width="1.5"/>
    <text x="521" y="24" font-family="Arial" font-size="11" fill="#374151">ML / Risk Engine</text>

    <rect x="640" y="12" width="16" height="16" rx="3" fill="#E6FFE6" stroke="#009933" stroke-width="1.5"/>
    <text x="661" y="24" font-family="Arial" font-size="11" fill="#374151">User Output / Success</text>

    <rect x="810" y="12" width="16" height="16" rx="3" fill="#FFF3E0" stroke="#E65100" stroke-width="1.5"/>
    <text x="831" y="24" font-family="Arial" font-size="11" fill="#374151">Feedback / Recalculation</text>

    <rect x="990" y="12" width="16" height="16" rx="3" fill="#F0F0F0" stroke="#666666" stroke-width="1.5"/>
    <text x="1011" y="24" font-family="Arial" font-size="11" fill="#374151">External Service</text>
  </g>
</svg>