<svg xmlns="http://www.w3.org/2000/svg" width="1100" height="1100" viewBox="0 0 1100 1100">
  <defs>
    <marker id="arrow" viewBox="0 0 10 10" refX="8" refY="5" markerWidth="6" markerHeight="6" orient="auto-start-reverse">
      <path d="M 0 0 L 10 5 L 0 10 z" fill="#374151" />
    </marker>
    <marker id="arrow-orange" viewBox="0 0 10 10" refX="8" refY="5" markerWidth="6" markerHeight="6" orient="auto-start-reverse">
      <path d="M 0 0 L 10 5 L 0 10 z" fill="#E65100" />
    </marker>
  </defs>
  <rect width="100%" height="100%" fill="#FFFFFF"/>
  <rect x="0" y="0" width="1100" height="60" fill="#800000"/>
  <text x="550.0" y="38" font-family="Arial" font-size="20" font-weight="bold" fill="#FFFFFF" text-anchor="middle">Flowchart 9 — SAKHI: Continuous Safety Intelligence Loop</text>
<rect x="340" y="85" width="420" height="52" rx="6" fill="#E6F2FF" stroke="#0066CC" stroke-width="2" />
<text x="550.0" y="103.0" font-family="Arial" font-size="14" font-weight="bold" fill="#1A1A1A" text-anchor="middle">REAL DATA + MODEL + CONTEXT</text>
<text x="550.0" y="123.0" font-family="Arial" font-size="12" fill="#4B5563" text-anchor="middle">NCRB Data + Machine Learning Models + Real-time Features</text>
<rect x="340" y="159" width="420" height="52" rx="6" fill="#F2E6FF" stroke="#6600CC" stroke-width="2" />
<text x="550.0" y="177.0" font-family="Arial" font-size="14" font-weight="bold" fill="#1A1A1A" text-anchor="middle">CONTEXTUAL RISK ENGINE</text>
<text x="550.0" y="197.0" font-family="Arial" font-size="12" fill="#4B5563" text-anchor="middle">XGBoost Evaluates Segment Safety Risk</text>
<line x1="550.0" y1="137" x2="550.0" y2="159" stroke="#374151" stroke-width="2"  marker-end="url(#arrow)"/>
<rect x="340" y="233" width="420" height="52" rx="6" fill="#F2E6FF" stroke="#6600CC" stroke-width="2" />
<text x="550.0" y="251.0" font-family="Arial" font-size="14" font-weight="bold" fill="#1A1A1A" text-anchor="middle">EXPLAINABLE ROUTING (SHAP)</text>
<text x="550.0" y="271.0" font-family="Arial" font-size="12" fill="#4B5563" text-anchor="middle">Explainable Risk Scoring & SHAP Feature Attribution</text>
<line x1="550.0" y1="211" x2="550.0" y2="233" stroke="#374151" stroke-width="2"  marker-end="url(#arrow)"/>
<rect x="340" y="307" width="420" height="52" rx="6" fill="#FFF0F0" stroke="#800000" stroke-width="2" />
<text x="550.0" y="325.0" font-family="Arial" font-size="14" font-weight="bold" fill="#1A1A1A" text-anchor="middle">USER JOURNEY</text>
<text x="550.0" y="345.0" font-family="Arial" font-size="12" fill="#4B5563" text-anchor="middle">Active User Navigation & Real-time Monitoring</text>
<line x1="550.0" y1="285" x2="550.0" y2="307" stroke="#374151" stroke-width="2"  marker-end="url(#arrow)"/>
<rect x="340" y="381" width="420" height="52" rx="6" fill="#E6F2FF" stroke="#0066CC" stroke-width="2" />
<text x="550.0" y="399.0" font-family="Arial" font-size="14" font-weight="bold" fill="#1A1A1A" text-anchor="middle">USER SAFETY OBSERVATION</text>
<text x="550.0" y="419.0" font-family="Arial" font-size="12" fill="#4B5563" text-anchor="middle">Crowdsourced Incident & Observation Reports</text>
<line x1="550.0" y1="359" x2="550.0" y2="381" stroke="#374151" stroke-width="2"  marker-end="url(#arrow)"/>
<rect x="340" y="455" width="420" height="52" rx="6" fill="#FFF0F0" stroke="#800000" stroke-width="2" />
<text x="550.0" y="473.0" font-family="Arial" font-size="14" font-weight="bold" fill="#1A1A1A" text-anchor="middle">VALIDATION & CORROBORATION</text>
<text x="550.0" y="493.0" font-family="Arial" font-size="12" fill="#4B5563" text-anchor="middle">Spatial/Temporal Clustering & Confidence Scoring</text>
<line x1="550.0" y1="433" x2="550.0" y2="455" stroke="#374151" stroke-width="2"  marker-end="url(#arrow)"/>
<rect x="340" y="529" width="420" height="52" rx="6" fill="#FFF3E0" stroke="#E65100" stroke-width="2" />
<text x="550.0" y="547.0" font-family="Arial" font-size="14" font-weight="bold" fill="#1A1A1A" text-anchor="middle">UPDATED CONTEXT</text>
<text x="550.0" y="567.0" font-family="Arial" font-size="12" fill="#4B5563" text-anchor="middle">Real-time Map & Environment Data Refresh</text>
<line x1="550.0" y1="507" x2="550.0" y2="529" stroke="#374151" stroke-width="2"  marker-end="url(#arrow)"/>
<rect x="340" y="603" width="420" height="52" rx="6" fill="#F2E6FF" stroke="#6600CC" stroke-width="2" />
<text x="550.0" y="621.0" font-family="Arial" font-size="14" font-weight="bold" fill="#1A1A1A" text-anchor="middle">UPDATED RISK</text>
<text x="550.0" y="641.0" font-family="Arial" font-size="12" fill="#4B5563" text-anchor="middle">Recalculated Segment Safety Risk Scores</text>
<line x1="550.0" y1="581" x2="550.0" y2="603" stroke="#374151" stroke-width="2"  marker-end="url(#arrow)"/>
<rect x="340" y="677" width="420" height="52" rx="6" fill="#E6FFE6" stroke="#009933" stroke-width="2" />
<text x="550.0" y="695.0" font-family="Arial" font-size="14" font-weight="bold" fill="#1A1A1A" text-anchor="middle">UPDATED ROUTE</text>
<text x="550.0" y="715.0" font-family="Arial" font-size="12" fill="#4B5563" text-anchor="middle">Dynamic Route Adaptation & Safety Re-ranking</text>
<line x1="550.0" y1="655" x2="550.0" y2="677" stroke="#374151" stroke-width="2"  marker-end="url(#arrow)"/>
<rect x="340" y="751" width="420" height="52" rx="6" fill="#F2E6FF" stroke="#6600CC" stroke-width="2" />
<text x="550.0" y="769.0" font-family="Arial" font-size="14" font-weight="bold" fill="#1A1A1A" text-anchor="middle">FUTURE MODEL IMPROVEMENT</text>
<text x="550.0" y="789.0" font-family="Arial" font-size="12" fill="#4B5563" text-anchor="middle">Long-term Model Retraining with Verified Data</text>
<line x1="550.0" y1="729" x2="550.0" y2="751" stroke="#374151" stroke-width="2"  marker-end="url(#arrow)"/>
<line x1="550.0" y1="803" x2="550.0" y2="833" stroke="#E65100" stroke-width="2" stroke-dasharray="4" marker-end="url(#arrow-orange)"/>
<line x1="550.0" y1="833" x2="950" y2="833" stroke="#E65100" stroke-width="2" stroke-dasharray="4" marker-end="url(#arrow-orange)"/>
<line x1="950" y1="833" x2="950" y2="111" stroke="#E65100" stroke-width="2" stroke-dasharray="4" marker-end="url(#arrow-orange)"/>
<line x1="950" y1="111" x2="760" y2="111" stroke="#E65100" stroke-width="2" stroke-dasharray="4" marker-end="url(#arrow-orange)"/>
<rect x="831.5" y="510" width="237.0" height="20" rx="4" fill="#FFFFFF" stroke="#D1D5DB" stroke-width="1"/>
<text x="950" y="524" font-family="Arial" font-size="11" font-weight="bold" fill="#E65100" text-anchor="middle">Continuous Intelligence Loop ↺</text>
<rect x="40" y="320" width="260" height="380" rx="8" fill="#FFFBEB" stroke="#D97706" stroke-width="2"/>
<text x="170" y="350" font-family="Arial" font-size="14" font-weight="bold" fill="#92400E" text-anchor="middle">WHY SAKHI IS MORE</text>
<text x="170" y="370" font-family="Arial" font-size="14" font-weight="bold" fill="#92400E" text-anchor="middle">THAN A MAP APP</text>
<text x="55" y="405" font-family="Arial" font-size="11" font-weight="bold" fill="#92400E">1. Dynamic Risk Layer</text>
<text x="55" y="423" font-family="Arial" font-size="11" font-weight="normal" fill="#B45309">Over standard OSRM routes</text>
<text x="55" y="441" font-family="Arial" font-size="11" font-weight="normal" fill="#B45309"></text>
<text x="55" y="459" font-family="Arial" font-size="11" font-weight="bold" fill="#92400E">2. Explainable AI</text>
<text x="55" y="477" font-family="Arial" font-size="11" font-weight="normal" fill="#B45309">SHAP value attributions</text>
<text x="55" y="495" font-family="Arial" font-size="11" font-weight="normal" fill="#B45309"></text>
<text x="55" y="513" font-family="Arial" font-size="11" font-weight="bold" fill="#92400E">3. Multi-Factor Trust</text>
<text x="55" y="531" font-family="Arial" font-size="11" font-weight="normal" fill="#B45309">Spatial/Temporal Corroboration</text>
<text x="55" y="549" font-family="Arial" font-size="11" font-weight="normal" fill="#B45309"></text>
<text x="55" y="567" font-family="Arial" font-size="11" font-weight="bold" fill="#92400E">4. Network Resilient</text>
<text x="55" y="585" font-family="Arial" font-size="11" font-weight="normal" fill="#B45309">Online Sarvam AI + Offline Fallback</text>
<text x="55" y="603" font-family="Arial" font-size="11" font-weight="normal" fill="#B45309"></text>
<text x="55" y="621" font-family="Arial" font-size="11" font-weight="bold" fill="#92400E">5. Self-Improving</text>
<text x="55" y="639" font-family="Arial" font-size="11" font-weight="normal" fill="#B45309">Verified crowdsourced data</text>
<text x="55" y="657" font-family="Arial" font-size="11" font-weight="normal" fill="#B45309">retrains models continuously</text>

  <!-- Legend -->
  <g transform="translate(40, 1030)">
    <rect x="0" y="0" width="1020" height="40" rx="6" fill="#FAFAFA" stroke="#E5E7EB" stroke-width="1"/>
    <text x="15" y="24" font-family="Arial" font-size="12" font-weight="bold" fill="#374151">LEGEND:</text>
    
    <rect x="85" y="12" width="16" height="16" rx="3" fill="#800000"/>
    <text x="106" y="24" font-family="Arial" font-size="11" fill="#374151">Main Flow / User</text>

    <rect x="220" y="12" width="16" height="16" rx="3" fill="#FFF0F0" stroke="#800000" stroke-width="1.5"/>
    <text x="241" y="24" font-family="Arial" font-size="11" fill="#374151">System Component</text>

    <rect x="380" y="12" width="16" height="16" rx="3" fill="#E6F2FF" stroke="#0066CC" stroke-width="1.5"/>
    <text x="401" y="24" font-family="Arial" font-size="11" fill="#374151">Data / Inputs</text>

    <rect x="500" y="12" width="16" height="16" rx="3" fill="#F2E6FF" stroke="#6600CC" stroke-width="1.5"/>
    <text x="521" y="24" font-family="Arial" font-size="11" fill="#374151">ML / Risk Engine</text>

    <rect x="640" y="12" width="16" height="16" rx="3" fill="#E6FFE6" stroke="#009933" stroke-width="1.5"/>
    <text x="661" y="24" font-family="Arial" font-size="11" fill="#374151">User Output / Success</text>

    <rect x="810" y="12" width="16" height="16" rx="3" fill="#FFF3E0" stroke="#E65100" stroke-width="1.5"/>
    <text x="831" y="24" font-family="Arial" font-size="11" fill="#374151">Feedback / Recalculation</text>

    <rect x="990" y="12" width="16" height="16" rx="3" fill="#F0F0F0" stroke="#666666" stroke-width="1.5"/>
    <text x="1011" y="24" font-family="Arial" font-size="11" fill="#374151">External Service</text>
  </g>
</svg>