<svg xmlns="http://www.w3.org/2000/svg" width="2000" height="1500" viewBox="0 0 2000 1500">
  <defs>
    <marker id="arrow" viewBox="0 0 10 10" refX="8" refY="5" markerWidth="6" markerHeight="6" orient="auto-start-reverse">
      <path d="M 0 0 L 10 5 L 0 10 z" fill="#374151" />
    </marker>
    <marker id="arrow-orange" viewBox="0 0 10 10" refX="8" refY="5" markerWidth="6" markerHeight="6" orient="auto-start-reverse">
      <path d="M 0 0 L 10 5 L 0 10 z" fill="#E65100" />
    </marker>
  </defs>
  <rect width="100%" height="100%" fill="#FFFFFF"/>
  
  <!-- Title Banner -->
  <rect x="0" y="0" width="2000" height="60" fill="#800000"/>
  <text x="1000.0" y="38" font-family="Arial" font-size="22" font-weight="bold" fill="#FFFFFF" text-anchor="middle">SAKHI — Backend System Architecture</text>

  <!-- Core Gateway (Top Center) -->
  <g id="backend_gateway">
<rect x="820" y="80" width="360" height="48" rx="6" fill="#FFF0F0" stroke="#800000" stroke-width="2" />
<text x="1000.0" y="95.0" font-family="Arial" font-size="13" font-weight="bold" fill="#1A1A1A" text-anchor="middle">MOBILE APP (React Native + Expo)</text>
<text x="1000.0" y="114.0" font-family="Arial" font-size="11" fill="#4B5563" text-anchor="middle">Client-side Application Layer</text>
<line x1="1000" y1="128" x2="1000" y2="150" stroke="#374151" stroke-width="2"  marker-end="url(#arrow)"/>
<rect x="820" y="150" width="360" height="48" rx="6" fill="#FFF0F0" stroke="#800000" stroke-width="2" />
<text x="1000.0" y="165.0" font-family="Arial" font-size="13" font-weight="bold" fill="#1A1A1A" text-anchor="middle">FASTAPI API LAYER</text>
<text x="1000.0" y="184.0" font-family="Arial" font-size="11" fill="#4B5563" text-anchor="middle">Main Backend Service Entry Gateway</text>
<rect x="680" y="220" width="640" height="640" rx="8" fill="#FBF9FF" stroke="#6600CC" stroke-width="1.5"/>
<text x="1000" y="245" font-family="Arial" font-size="14" font-weight="bold" fill="#6600CC" text-anchor="middle">1. ROUTING & CONTEXTUAL RISK ENGINE PIPELINE</text>
<line x1="1000" y1="198" x2="1000" y2="260" stroke="#374151" stroke-width="2"  marker-end="url(#arrow)"/>
<rect x="780" y="260" width="440" height="44" rx="6" fill="#FFF0F0" stroke="#800000" stroke-width="2" />
<text x="1000.0" y="273.0" font-family="Arial" font-size="13" font-weight="bold" fill="#1A1A1A" text-anchor="middle">JOURNEY / ROUTING SERVICE</text>
<text x="1000.0" y="292.0" font-family="Arial" font-size="11" fill="#4B5563" text-anchor="middle">Handles Origin/Destination Requests</text>
<line x1="1000" y1="304" x2="1000" y2="325" stroke="#374151" stroke-width="2"  marker-end="url(#arrow)"/>
<rect x="780" y="325" width="440" height="44" rx="6" fill="#F0F0F0" stroke="#666666" stroke-width="2" />
<text x="1000.0" y="338.0" font-family="Arial" font-size="13" font-weight="bold" fill="#1A1A1A" text-anchor="middle">OSRM + OPENSTREETMAP ENGINE</text>
<text x="1000.0" y="357.0" font-family="Arial" font-size="11" fill="#4B5563" text-anchor="middle">Generates Geometry Candidate Paths</text>
<line x1="1000" y1="369" x2="1000" y2="390" stroke="#374151" stroke-width="2"  marker-end="url(#arrow)"/>
<rect x="780" y="390" width="440" height="44" rx="6" fill="#FFF0F0" stroke="#800000" stroke-width="2" />
<text x="1000.0" y="403.0" font-family="Arial" font-size="13" font-weight="bold" fill="#1A1A1A" text-anchor="middle">ROUTE SEGMENTATION SERVICE</text>
<text x="1000.0" y="422.0" font-family="Arial" font-size="11" fill="#4B5563" text-anchor="middle">Splits Geometry into Spatial Segments</text>
<line x1="1000" y1="434" x2="1000" y2="455" stroke="#374151" stroke-width="2"  marker-end="url(#arrow)"/>
<rect x="780" y="455" width="440" height="44" rx="6" fill="#F2E6FF" stroke="#6600CC" stroke-width="2" />
<text x="1000.0" y="468.0" font-family="Arial" font-size="13" font-weight="bold" fill="#1A1A1A" text-anchor="middle">CONTEXTUAL FEATURE SERVICE</text>
<text x="1000.0" y="487.0" font-family="Arial" font-size="11" fill="#4B5563" text-anchor="middle">Extracts Spatial + Temporal + Context Features</text>
<line x1="1000" y1="499" x2="1000" y2="520" stroke="#374151" stroke-width="2"  marker-end="url(#arrow)"/>
<rect x="780" y="520" width="440" height="44" rx="6" fill="#F2E6FF" stroke="#6600CC" stroke-width="2" />
<text x="1000.0" y="533.0" font-family="Arial" font-size="13" font-weight="bold" fill="#1A1A1A" text-anchor="middle">XGBOOST RISK ENGINE MODEL</text>
<text x="1000.0" y="552.0" font-family="Arial" font-size="11" fill="#4B5563" text-anchor="middle">Evaluates Segment Contextual Safety Risk</text>
<line x1="1000" y1="564" x2="870" y2="595" stroke="#374151" stroke-width="2"  marker-end="url(#arrow)"/>
<line x1="1000" y1="564" x2="1130" y2="595" stroke="#374151" stroke-width="2"  marker-end="url(#arrow)"/>
<rect x="710" y="595" width="320" height="44" rx="6" fill="#F2E6FF" stroke="#6600CC" stroke-width="2" />
<text x="870.0" y="608.0" font-family="Arial" font-size="13" font-weight="bold" fill="#1A1A1A" text-anchor="middle">SHAP EXPLANATION SERVICE</text>
<text x="870.0" y="627.0" font-family="Arial" font-size="11" fill="#4B5563" text-anchor="middle">TreeSHAP Feature Attribution</text>
<rect x="1050" y="595" width="320" height="44" rx="6" fill="#F2E6FF" stroke="#6600CC" stroke-width="2" />
<text x="1210.0" y="608.0" font-family="Arial" font-size="13" font-weight="bold" fill="#1A1A1A" text-anchor="middle">CONFIDENCE SERVICE</text>
<text x="1210.0" y="627.0" font-family="Arial" font-size="11" fill="#4B5563" text-anchor="middle">Uncertainty & Data Quality Metric</text>
<line x1="870" y1="639" x2="1000" y2="670" stroke="#374151" stroke-width="2"  marker-end="url(#arrow)"/>
<line x1="1130" y1="639" x2="1000" y2="670" stroke="#374151" stroke-width="2"  marker-end="url(#arrow)"/>
<rect x="780" y="670" width="440" height="44" rx="6" fill="#F2E6FF" stroke="#6600CC" stroke-width="2" />
<text x="1000.0" y="683.0" font-family="Arial" font-size="13" font-weight="bold" fill="#1A1A1A" text-anchor="middle">RISK + SHAP + CONFIDENCE AGGREGATOR</text>
<text x="1000.0" y="702.0" font-family="Arial" font-size="11" fill="#4B5563" text-anchor="middle">Combines Risk, Explanation & Quality Scores</text>
<line x1="1000" y1="714" x2="1000" y2="735" stroke="#374151" stroke-width="2"  marker-end="url(#arrow)"/>
<rect x="952.75" y="715" width="94.5" height="20" rx="4" fill="#FFFFFF" stroke="#D1D5DB" stroke-width="1"/>
<text x="1000" y="729" font-family="Arial" font-size="11" font-weight="bold" fill="#6600CC" text-anchor="middle">Rank Routes</text>
<rect x="780" y="735" width="440" height="44" rx="6" fill="#FFF0F0" stroke="#800000" stroke-width="2" />
<text x="1000.0" y="748.0" font-family="Arial" font-size="13" font-weight="bold" fill="#1A1A1A" text-anchor="middle">ROUTE RANKING SERVICE</text>
<text x="1000.0" y="767.0" font-family="Arial" font-size="11" fill="#4B5563" text-anchor="middle">Evaluates Safest / Balanced / Fastest</text>
<line x1="1000" y1="779" x2="1000" y2="800" stroke="#374151" stroke-width="2"  marker-end="url(#arrow)"/>
<rect x="780" y="800" width="440" height="44" rx="6" fill="#E6FFE6" stroke="#009933" stroke-width="2" />
<text x="1000.0" y="813.0" font-family="Arial" font-size="13" font-weight="bold" fill="#1A1A1A" text-anchor="middle">JOURNEY RESPONSE GENERATOR</text>
<text x="1000.0" y="832.0" font-family="Arial" font-size="11" fill="#4B5563" text-anchor="middle">Formats Map Coordinates + Report JSON</text>
<line x1="1220" y1="822" x2="1350" y2="822" stroke="#009933" stroke-width="2"  marker-end="url(#arrow)"/>
<line x1="1350" y1="822" x2="1350" y2="104" stroke="#009933" stroke-width="2"  marker-end="url(#arrow)"/>
<line x1="1350" y1="104" x2="1180" y2="104" stroke="#009933" stroke-width="2"  marker-end="url(#arrow)"/>
<rect x="1265.25" y="450" width="169.5" height="20" rx="4" fill="#FFFFFF" stroke="#D1D5DB" stroke-width="1"/>
<text x="1350" y="464" font-family="Arial" font-size="11" font-weight="bold" fill="#009933" text-anchor="middle">Journey Response JSON</text>
<rect x="40" y="220" width="600" height="640" rx="8" fill="#F4F8FB" stroke="#0066CC" stroke-width="1.5"/>
<text x="340" y="245" font-family="Arial" font-size="14" font-weight="bold" fill="#0066CC" text-anchor="middle">2. DATA STORAGE & SPATIAL ENGINE LAYER</text>
<rect x="60" y="265" width="560" height="200" rx="6" fill="#FFFFFF" stroke="#0066CC" stroke-width="1"/>
<text x="340" y="288" font-family="Arial" font-size="13" font-weight="bold" fill="#0066CC" text-anchor="middle">DELHI DATA SOURCES</text>
<text x="80" y="300" font-family="Arial" font-size="11" fill="#374151">• NCRB / Crime Statistics Data</text>
<text x="80" y="326" font-family="Arial" font-size="11" fill="#374151">• Population & Grid Density Data</text>
<text x="80" y="352" font-family="Arial" font-size="11" fill="#374151">• Police Station Coordinates & Boundaries</text>
<text x="80" y="378" font-family="Arial" font-size="11" fill="#374151">• Hospitals & Emergency Medical Facilities</text>
<text x="80" y="404" font-family="Arial" font-size="11" fill="#374151">• Public Washrooms & Amenities (Right to Pee)</text>
<text x="80" y="430" font-family="Arial" font-size="11" fill="#374151">• OpenStreetMap GIS Infrastructure Features</text>
<line x1="340" y1="465" x2="340" y2="495" stroke="#374151" stroke-width="2"  marker-end="url(#arrow)"/>
<rect x="120" y="495" width="440" height="44" rx="6" fill="#FFF0F0" stroke="#800000" stroke-width="2" />
<text x="340.0" y="508.0" font-family="Arial" font-size="13" font-weight="bold" fill="#1A1A1A" text-anchor="middle">DATA PREPROCESSING ENGINE</text>
<text x="340.0" y="527.0" font-family="Arial" font-size="11" fill="#4B5563" text-anchor="middle">Cleans, Validates & Normalizes Spatial Data</text>
<line x1="340" y1="539" x2="340" y2="570" stroke="#374151" stroke-width="2"  marker-end="url(#arrow)"/>
<rect x="120" y="570" width="440" height="44" rx="6" fill="#F2E6FF" stroke="#6600CC" stroke-width="2" />
<text x="340.0" y="583.0" font-family="Arial" font-size="13" font-weight="bold" fill="#1A1A1A" text-anchor="middle">FEATURE ENGINEERING PIPELINE</text>
<text x="340.0" y="602.0" font-family="Arial" font-size="11" fill="#4B5563" text-anchor="middle">Extracts Spatial & Temporal Risk Features</text>
<line x1="340" y1="614" x2="340" y2="645" stroke="#374151" stroke-width="2"  marker-end="url(#arrow)"/>
<rect x="80" y="645" width="520" height="100" rx="6" fill="#E6F2FF" stroke="#0066CC" stroke-width="2" />
<text x="340.0" y="686.0" font-family="Arial" font-size="13" font-weight="bold" fill="#1A1A1A" text-anchor="middle">POSTGRESQL / POSTGIS DATABASE</text>
<text x="340.0" y="705.0" font-family="Arial" font-size="11" fill="#4B5563" text-anchor="middle">Central Spatial & Safety Data Repository
• Crime & Risk Feature Store  • Spatial Features & Geometries
• Verified Restrooms & Amenities  • Incident Reports Store</text>
<line x1="600" y1="695" x2="780" y2="477" stroke="#0066CC" stroke-width="2"  marker-end="url(#arrow)"/>
<rect x="591.5" y="560" width="177.0" height="20" rx="4" fill="#FFFFFF" stroke="#D1D5DB" stroke-width="1"/>
<text x="680" y="574" font-family="Arial" font-size="11" font-weight="bold" fill="#0066CC" text-anchor="middle">Feeds Spatial Features</text>
<rect x="1360" y="220" width="580" height="640" rx="8" fill="#FFF8F0" stroke="#E65100" stroke-width="1.5"/>
<text x="1650" y="245" font-family="Arial" font-size="14" font-weight="bold" fill="#E65100" text-anchor="middle">3. USER FEEDBACK & INCIDENT ENGINE</text>
<rect x="1430" y="270" width="440" height="44" rx="6" fill="#FFF0F0" stroke="#800000" stroke-width="2" />
<text x="1650.0" y="283.0" font-family="Arial" font-size="13" font-weight="bold" fill="#1A1A1A" text-anchor="middle">FEEDBACK / INCIDENT API</text>
<text x="1650.0" y="302.0" font-family="Arial" font-size="11" fill="#4B5563" text-anchor="middle">Receives Crowdsourced Safety Observations</text>
<line x1="1650" y1="314" x2="1650" y2="340" stroke="#374151" stroke-width="2"  marker-end="url(#arrow)"/>
<rect x="1430" y="340" width="440" height="44" rx="6" fill="#FFF0F0" stroke="#800000" stroke-width="2" />
<text x="1650.0" y="353.0" font-family="Arial" font-size="13" font-weight="bold" fill="#1A1A1A" text-anchor="middle">VALIDATION / TRUST / DUPLICATE CHECK</text>
<text x="1650.0" y="372.0" font-family="Arial" font-size="11" fill="#4B5563" text-anchor="middle">Corroboration & Spam Prevention Engine</text>
<line x1="1650" y1="384" x2="1650" y2="410" stroke="#374151" stroke-width="2"  marker-end="url(#arrow)"/>
<rect x="1430" y="410" width="440" height="44" rx="6" fill="#E6F2FF" stroke="#0066CC" stroke-width="2" />
<text x="1650.0" y="423.0" font-family="Arial" font-size="13" font-weight="bold" fill="#1A1A1A" text-anchor="middle">INCIDENT STORAGE SERVICE</text>
<text x="1650.0" y="442.0" font-family="Arial" font-size="11" fill="#4B5563" text-anchor="middle">Persists Validated Incident Metrics</text>
<line x1="1650" y1="454" x2="1650" y2="480" stroke="#374151" stroke-width="2"  marker-end="url(#arrow)"/>
<rect x="1430" y="480" width="440" height="44" rx="6" fill="#FFF3E0" stroke="#E65100" stroke-width="2" />
<text x="1650.0" y="493.0" font-family="Arial" font-size="13" font-weight="bold" fill="#1A1A1A" text-anchor="middle">CONTEXT UPDATE SERVICE</text>
<text x="1650.0" y="512.0" font-family="Arial" font-size="11" fill="#4B5563" text-anchor="middle">Triggers Real-time Safety Map Refresh</text>
<line x1="1650" y1="524" x2="1650" y2="550" stroke="#374151" stroke-width="2"  marker-end="url(#arrow)"/>
<rect x="1430" y="550" width="440" height="44" rx="6" fill="#FFF3E0" stroke="#E65100" stroke-width="2" />
<text x="1650.0" y="563.0" font-family="Arial" font-size="13" font-weight="bold" fill="#1A1A1A" text-anchor="middle">RISK RECALCULATION & REROUTING</text>
<text x="1650.0" y="582.0" font-family="Arial" font-size="11" fill="#4B5563" text-anchor="middle">Re-evaluates Active Journey Risk Scores</text>
<line x1="1650" y1="594" x2="1650" y2="620" stroke="#374151" stroke-width="2"  marker-end="url(#arrow)"/>
<rect x="1410" y="620" width="480" height="90" rx="6" fill="#FFF3E0" stroke="#E65100" stroke-width="2" />
<text x="1650.0" y="656.0" font-family="Arial" font-size="13" font-weight="bold" fill="#1A1A1A" text-anchor="middle">LONG-TERM MODEL RETRAINING LOOP</text>
<text x="1650.0" y="675.0" font-family="Arial" font-size="11" fill="#4B5563" text-anchor="middle">Validated Incidents → Retraining Dataset → XGBoost Retraining
→ Upgraded Risk Engine Weights</text>
<line x1="1410" y1="665" x2="1220" y2="542" stroke="#E65100" stroke-width="2" stroke-dasharray="4" marker-end="url(#arrow-orange)"/>
<rect x="1244.0" y="590" width="132.0" height="20" rx="4" fill="#FFFFFF" stroke="#D1D5DB" stroke-width="1"/>
<text x="1310" y="604" font-family="Arial" font-size="11" font-weight="bold" fill="#E65100" text-anchor="middle">Retrains XGBoost</text>
<rect x="1390" y="735" width="520" height="110" rx="6" fill="#FFFBEB" stroke="#D97706" stroke-width="2"/>
<text x="1650" y="760" font-family="Arial" font-size="12" font-weight="bold" fill="#92400E" text-anchor="middle">⚠️ TRUST vs INCIDENT VALIDATION SPECIFICATION</text>
<text x="1650" y="785" font-family="Arial" font-size="11" fill="#B45309" text-anchor="middle">"Identity / account verification does NOT mean an incident report is true."</text>
<text x="1650" y="805" font-family="Arial" font-size="11" fill="#B45309" text-anchor="middle">"Trust scoring and incident corroboration remain strictly separate."</text>
<text x="1650" y="825" font-family="Arial" font-size="11" fill="#B45309" text-anchor="middle">"Incident validity depends on spatial/temporal consensus & duplicate filtering."</text>
<rect x="40" y="900" width="600" height="420" rx="8" fill="#F4F8FB" stroke="#0066CC" stroke-width="1.5"/>
<text x="340" y="925" font-family="Arial" font-size="14" font-weight="bold" fill="#0066CC" text-anchor="middle">4. AMENITIES / RIGHT TO PEE BACKEND</text>
<rect x="120" y="945" width="440" height="44" rx="6" fill="#FFF0F0" stroke="#800000" stroke-width="2" />
<text x="340.0" y="958.0" font-family="Arial" font-size="13" font-weight="bold" fill="#1A1A1A" text-anchor="middle">AMENITIES API ENDPOINT</text>
<text x="340.0" y="977.0" font-family="Arial" font-size="11" fill="#4B5563" text-anchor="middle">/api/v1/amenities Queries</text>
<line x1="340" y1="989" x2="340" y2="1010" stroke="#374151" stroke-width="2"  marker-end="url(#arrow)"/>
<rect x="80" y="1010" width="520" height="52" rx="6" fill="#E6F2FF" stroke="#0066CC" stroke-width="2" />
<text x="340.0" y="1027.0" font-family="Arial" font-size="13" font-weight="bold" fill="#1A1A1A" text-anchor="middle">REAL DELHI AMENITY DATA SOURCES</text>
<text x="340.0" y="1046.0" font-family="Arial" font-size="11" fill="#4B5563" text-anchor="middle">OpenStreetMap / Overpass API + Government Official Open Data</text>
<line x1="340" y1="1062" x2="340" y2="1085" stroke="#374151" stroke-width="2"  marker-end="url(#arrow)"/>
<rect x="120" y="1085" width="440" height="44" rx="6" fill="#E6F2FF" stroke="#0066CC" stroke-width="2" />
<text x="340.0" y="1098.0" font-family="Arial" font-size="13" font-weight="bold" fill="#1A1A1A" text-anchor="middle">POSTGRESQL / POSTGIS AMENITIES STORE</text>
<text x="340.0" y="1117.0" font-family="Arial" font-size="11" fill="#4B5563" text-anchor="middle">Stores Filtered Restroom Coordinates & Ratings</text>
<line x1="340" y1="1129" x2="340" y2="1150" stroke="#374151" stroke-width="2"  marker-end="url(#arrow)"/>
<rect x="120" y="1150" width="440" height="44" rx="6" fill="#E6FFE6" stroke="#009933" stroke-width="2" />
<text x="340.0" y="1163.0" font-family="Arial" font-size="13" font-weight="bold" fill="#1A1A1A" text-anchor="middle">NEARBY / ALONG-ROUTE AMENITIES RESPONSE</text>
<text x="340.0" y="1182.0" font-family="Arial" font-size="11" fill="#4B5563" text-anchor="middle">Returns Validated Washroom Markers to App</text>
<line x1="340" y1="1194" x2="340" y2="1215" stroke="#374151" stroke-width="2"  marker-end="url(#arrow)"/>
<rect x="120" y="1215" width="440" height="44" rx="6" fill="#E6FFE6" stroke="#009933" stroke-width="2" />
<text x="340.0" y="1228.0" font-family="Arial" font-size="13" font-weight="bold" fill="#1A1A1A" text-anchor="middle">GOOGLE MAPS NAVIGATION LAUNCH</text>
<text x="340.0" y="1247.0" font-family="Arial" font-size="11" fill="#4B5563" text-anchor="middle">Selected Origin → Selected Amenity Coordinates</text>
<rect x="680" y="900" width="640" height="420" rx="8" fill="#F8FAFC" stroke="#334155" stroke-width="1.5"/>
<text x="1000" y="925" font-family="Arial" font-size="14" font-weight="bold" fill="#1E293B" text-anchor="middle">5. TWO-LAYER CALL A FRIEND BACKEND ARCHITECTURE</text>
<rect x="780" y="945" width="440" height="44" rx="6" fill="#FFF0F0" stroke="#800000" stroke-width="2" />
<text x="1000.0" y="958.0" font-family="Arial" font-size="13" font-weight="bold" fill="#1A1A1A" text-anchor="middle">CALL A FRIEND BACKEND API</text>
<text x="1000.0" y="977.0" font-family="Arial" font-size="11" fill="#4B5563" text-anchor="middle">/api/v1/call-friend Endpoint</text>
<line x1="1000" y1="989" x2="1000" y2="1010" stroke="#374151" stroke-width="2"  marker-end="url(#arrow)"/>
<rect x="780" y="1010" width="440" height="40" rx="6" fill="#FFF0F0" stroke="#800000" stroke-width="2" />
<text x="1000.0" y="1021.0" font-family="Arial" font-size="11" font-weight="bold" fill="#1A1A1A" text-anchor="middle">NETWORK CONNECTIVITY ROUTER</text>
<text x="1000.0" y="1040.0" font-family="Arial" font-size="9" fill="#4B5563" text-anchor="middle">Detects Internet Availability</text>
<line x1="1000" y1="1050" x2="840" y2="1080" stroke="#374151" stroke-width="2"  marker-end="url(#arrow)"/>
<rect x="849.0" y="1050" width="102.0" height="20" rx="4" fill="#FFFFFF" stroke="#D1D5DB" stroke-width="1"/>
<text x="900" y="1064" font-family="Arial" font-size="11" font-weight="bold" fill="#0066CC" text-anchor="middle">YES (ONLINE)</text>
<line x1="1000" y1="1050" x2="1160" y2="1080" stroke="#374151" stroke-width="2"  marker-end="url(#arrow)"/>
<rect x="1049.0" y="1050" width="102.0" height="20" rx="4" fill="#FFFFFF" stroke="#D1D5DB" stroke-width="1"/>
<text x="1100" y="1064" font-family="Arial" font-size="11" font-weight="bold" fill="#DC2626" text-anchor="middle">NO (OFFLINE)</text>
<rect x="710" y="1080" width="270" height="44" rx="6" fill="#F2E6FF" stroke="#6600CC" stroke-width="2" />
<text x="845.0" y="1093.0" font-family="Arial" font-size="11" font-weight="bold" fill="#1A1A1A" text-anchor="middle">SARVAM AI TTS SERVICE</text>
<text x="845.0" y="1112.0" font-family="Arial" font-size="9" fill="#4B5563" text-anchor="middle">Bulbul V3 Synthesis (shubh/priya)</text>
<rect x="1020" y="1080" width="270" height="44" rx="6" fill="#FEF2F2" stroke="#DC2626" stroke-width="2" />
<text x="1155.0" y="1093.0" font-family="Arial" font-size="11" font-weight="bold" fill="#1A1A1A" text-anchor="middle">LOCAL PRE-INSTALLED AUDIO CLIPS</text>
<text x="1155.0" y="1112.0" font-family="Arial" font-size="9" fill="#4B5563" text-anchor="middle">6 Local WAV Clips (Zero Network)</text>
<line x1="845" y1="1124" x2="1000" y2="1150" stroke="#374151" stroke-width="2"  marker-end="url(#arrow)"/>
<line x1="1155" y1="1124" x2="1000" y2="1150" stroke="#374151" stroke-width="2"  marker-end="url(#arrow)"/>
<rect x="780" y="1150" width="440" height="44" rx="6" fill="#E6FFE6" stroke="#009933" stroke-width="2" />
<text x="1000.0" y="1163.0" font-family="Arial" font-size="13" font-weight="bold" fill="#1A1A1A" text-anchor="middle">SIMULATED CALL PLAYBACK UI</text>
<text x="1000.0" y="1182.0" font-family="Arial" font-size="11" fill="#4B5563" text-anchor="middle">expo-audio Player Active Call Screen</text>
<rect x="780" y="1210" width="440" height="36" rx="6" fill="#FFFBEB" stroke="#D97706" stroke-width="2" />
<text x="1000.0" y="1232.0" font-family="Arial" font-size="11" font-weight="bold" fill="#1A1A1A" text-anchor="middle">📌 Note: Simulated Safety Call UI. No direct cellular call initiated.</text>
<rect x="1360" y="900" width="580" height="420" rx="8" fill="#FFF3E0" stroke="#E65100" stroke-width="1.5"/>
<text x="1650" y="925" font-family="Arial" font-size="14" font-weight="bold" fill="#E65100" text-anchor="middle">6. OFFLINE / RESILIENT LOCAL CACHE MATRIX</text>
<rect x="1430" y="945" width="440" height="44" rx="6" fill="#EFF6FF" stroke="#2563EB" stroke-width="2" />
<text x="1650.0" y="958.0" font-family="Arial" font-size="13" font-weight="bold" fill="#1A1A1A" text-anchor="middle">LIVE DATA STREAM</text>
<text x="1650.0" y="977.0" font-family="Arial" font-size="11" fill="#4B5563" text-anchor="middle">Active API Connection Stream</text>
<line x1="1650" y1="989" x2="1650" y2="1010" stroke="#374151" stroke-width="2"  marker-end="url(#arrow)"/>
<rect x="1390" y="1010" width="520" height="100" rx="6" fill="#FFF3E0" stroke="#E65100" stroke-width="2" />
<text x="1650.0" y="1051.0" font-family="Arial" font-size="13" font-weight="bold" fill="#1A1A1A" text-anchor="middle">MOBILE LOCAL CACHE MATRIX</text>
<text x="1650.0" y="1070.0" font-family="Arial" font-size="11" fill="#4B5563" text-anchor="middle">Pre-stored Non-Emergency Offline Assets:
• Journey Details & Waypoints  • Route Geometries
• Segment Risk Scores & SHAP  • Confidence Ratings
• Nearby Restroom Data  • Local Call-a-Friend Audio Library</text>
<line x1="1650" y1="1110" x2="1530" y2="1140" stroke="#374151" stroke-width="2"  marker-end="url(#arrow)"/>
<line x1="1650" y1="1110" x2="1770" y2="1140" stroke="#374151" stroke-width="2"  marker-end="url(#arrow)"/>
<rect x="1390" y="1140" width="250" height="44" rx="6" fill="#FEF2F2" stroke="#DC2626" stroke-width="2" />
<text x="1515.0" y="1153.0" font-family="Arial" font-size="11" font-weight="bold" fill="#1A1A1A" text-anchor="middle">NETWORK UNAVAILABLE</text>
<text x="1515.0" y="1172.0" font-family="Arial" font-size="9" fill="#4B5563" text-anchor="middle">Loads Cached Local Data</text>
<rect x="1660" y="1140" width="250" height="44" rx="6" fill="#E6FFE6" stroke="#009933" stroke-width="2" />
<text x="1785.0" y="1153.0" font-family="Arial" font-size="11" font-weight="bold" fill="#1A1A1A" text-anchor="middle">NETWORK RESTORED</text>
<text x="1785.0" y="1172.0" font-family="Arial" font-size="9" fill="#4B5563" text-anchor="middle">Triggers Refresh & Sync</text>
<line x1="1785" y1="1184" x2="1650" y2="1215" stroke="#374151" stroke-width="2"  marker-end="url(#arrow)"/>
<rect x="1430" y="1215" width="440" height="44" rx="6" fill="#E6FFE6" stroke="#009933" stroke-width="2" />
<text x="1650.0" y="1228.0" font-family="Arial" font-size="13" font-weight="bold" fill="#1A1A1A" text-anchor="middle">SYNCHRONIZE & REFRESH LIVE STREAM</text>
<text x="1650.0" y="1247.0" font-family="Arial" font-size="11" fill="#4B5563" text-anchor="middle">Re-syncs Client Data with FastAPI Backend</text>
<line x1="1650" y1="1259" x2="1650" y2="1370" stroke="#E65100" stroke-width="2" stroke-dasharray="4" marker-end="url(#arrow-orange)"/>
<line x1="1650" y1="1370" x2="1000" y2="1370" stroke="#E65100" stroke-width="2" stroke-dasharray="4" marker-end="url(#arrow-orange)"/>
<line x1="1000" y1="1370" x2="1000" y2="860" stroke="#E65100" stroke-width="2" stroke-dasharray="4" marker-end="url(#arrow-orange)"/>
<rect x="1134.0" y="1350" width="372.0" height="20" rx="4" fill="#FFFFFF" stroke="#D1D5DB" stroke-width="1"/>
<text x="1320" y="1364" font-family="Arial" font-size="11" font-weight="bold" fill="#E65100" text-anchor="middle">System Feedback & Continuous Model Improvement ↺</text>

  <!-- Legend -->
  <g transform="translate(40, 1440)">
    <rect x="0" y="0" width="1920" height="42" rx="6" fill="#FAFAFA" stroke="#E5E7EB" stroke-width="1.5"/>
    <text x="20" y="26" font-family="Arial" font-size="12" font-weight="bold" fill="#374151">COLOR CODING LEGEND:</text>
    
    <rect x="180" y="13" width="16" height="16" rx="3" fill="#800000"/>
    <text x="202" y="26" font-family="Arial" font-size="11" fill="#374151">Main Flow / Start-End</text>

    <rect x="360" y="13" width="16" height="16" rx="3" fill="#FFF0F0" stroke="#800000" stroke-width="1.5"/>
    <text x="382" y="26" font-family="Arial" font-size="11" fill="#374151">Frontend / Component</text>

    <rect x="540" y="13" width="16" height="16" rx="3" fill="#E6F2FF" stroke="#0066CC" stroke-width="1.5"/>
    <text x="562" y="26" font-family="Arial" font-size="11" fill="#374151">Data / Location / Input</text>

    <rect x="720" y="13" width="16" height="16" rx="3" fill="#F2E6FF" stroke="#6600CC" stroke-width="1.5"/>
    <text x="742" y="26" font-family="Arial" font-size="11" fill="#374151">ML / XGBoost / SHAP / Confidence</text>

    <rect x="980" y="13" width="16" height="16" rx="3" fill="#E6FFE6" stroke="#009933" stroke-width="1.5"/>
    <text x="1002" y="26" font-family="Arial" font-size="11" fill="#374151">User Output / Success</text>

    <rect x="1170" y="13" width="16" height="16" rx="3" fill="#FFF3E0" stroke="#E65100" stroke-width="1.5"/>
    <text x="1192" y="26" font-family="Arial" font-size="11" fill="#374151">Feedback / Rerouting / Recalculation</text>

    <rect x="1440" y="13" width="16" height="16" rx="3" fill="#F0F0F0" stroke="#666666" stroke-width="1.5"/>
    <text x="1462" y="26" font-family="Arial" font-size="11" fill="#374151">External Services</text>
  </g>
</svg>